<svg id="Ebene_1" data-name="Ebene 1" xmlns="http://www.w3.org/2000/svg" viewBox="0 0 586.94 586.94"><defs><style>.cls-1{fill:none;stroke:#fff;stroke-linecap:round;stroke-linejoin:round;stroke-width:20px;}</style></defs><line class="cls-1" x1="10" y1="10.06" x2="293.44" y2="10.06"/><path class="cls-1" d="M293.47,576.94C450,576.94,576.94,450,576.94,293.47" transform="translate(0 0)"/><line class="cls-1" x1="293.44" y1="576.94" x2="293.44" y2="576.94"/><line class="cls-1" x1="576.88" y1="293.5" x2="576.88" y2="293.5"/><path class="cls-1" d="M576.94,293.47C576.94,136.91,450,10,293.47,10" transform="translate(0 0)"/><line class="cls-1" x1="10" y1="10.06" x2="10" y2="293.5"/><path class="cls-1" d="M10,293.47C10,450,136.91,576.94,293.47,576.94" transform="translate(0 0)"/><line class="cls-1" x1="10" y1="10.06" x2="576.88" y2="576.94"/><polyline class="cls-1" points="293.44 10.06 576.88 10.06 576.88 293.5"/><line class="cls-1" x1="74.2" y1="473.2" x2="473.14" y2="473.2"/><line class="cls-1" x1="10" y1="248.14" x2="248.08" y2="248.14"/><line class="cls-1" x1="473.14" y1="74.26" x2="473.14" y2="473.2"/><line class="cls-1" x1="248.08" y1="10.06" x2="248.08" y2="248.14"/></svg>