<svg id="Ebene_1" data-name="Ebene 1" xmlns="http://www.w3.org/2000/svg" xmlns:xlink="http://www.w3.org/1999/xlink" viewBox="0 0 586.94 586.94"><defs><style>.cls-1,.cls-2{fill:none;}.cls-2{stroke:#1d1d1b;stroke-linecap:round;stroke-linejoin:round;stroke-width:20px;}.cls-3{clip-path:url(#clip-path);}</style><clipPath id="clip-path" transform="translate(-131.76 -131.7)"><rect class="cls-1" width="850.39" height="850.39"/></clipPath></defs><line class="cls-2" x1="10" y1="10.06" x2="293.44" y2="10.06"/><line class="cls-2" x1="293.44" y1="576.94" x2="293.44" y2="576.94"/><g class="cls-3"><path class="cls-2" d="M425.23,708.64c156.55,0,283.47-126.92,283.47-283.47" transform="translate(-131.76 -131.7)"/><line class="cls-2" x1="293.44" y1="576.94" x2="293.44" y2="576.94"/><line class="cls-2" x1="576.88" y1="293.5" x2="576.88" y2="293.5"/><path class="cls-2" d="M708.7,425.17c0-156.56-126.92-283.47-283.47-283.47" transform="translate(-131.76 -131.7)"/><line class="cls-2" x1="10" y1="10.06" x2="10" y2="293.5"/><path class="cls-2" d="M141.76,425.17c0,156.55,126.91,283.47,283.47,283.47" transform="translate(-131.76 -131.7)"/><line class="cls-2" x1="10" y1="10.06" x2="576.88" y2="576.94"/><polyline class="cls-2" points="293.44 10.06 576.88 10.06 576.88 293.5"/><line class="cls-2" x1="74.2" y1="473.2" x2="473.14" y2="473.2"/><line class="cls-2" x1="10" y1="248.14" x2="248.08" y2="248.14"/><line class="cls-2" x1="473.14" y1="74.26" x2="473.14" y2="473.2"/><line class="cls-2" x1="248.08" y1="10.06" x2="248.08" y2="248.14"/></g></svg>