<svg xmlns="http://www.w3.org/2000/svg" viewBox="0 0 64.08 64.08"><defs><style>.cls-1{fill:#fff;}</style></defs><g id="Ebene_2" data-name="Ebene 2"><g id="Ebene_1-2" data-name="Ebene 1"><path class="cls-1" d="M0,32Q0,16.45,0,.88C0,.21.08,0,.84,0Q32,0,63.18,0c.78,0,.9.22.9.94q0,31.09,0,62.2c0,.71-.11.94-.9.94Q32,64,.84,64.08c-.75,0-.84-.2-.84-.88Q0,47.63,0,32Z"/><path d="M32.44,3.92H52.59c1.46,0,1.47,0,1.47,1.43q0,13.43,0,26.85c0,.77.32,1.69-.82,2.09-.28.1-.13.59-.15.9s0,.82-.56.88a.39.39,0,0,0-.37.4c.1,1.87-1.64,2.47-2.57,3.62-.31.39-.35.39,0,.76a46.65,46.65,0,0,0,3.71,3.73A2.66,2.66,0,0,1,54,46.92c0,.39.21,1-.43,1.07s-1.22.36-1.78-.46a18.47,18.47,0,0,0-2.34-2.34c-.5-.48-.94-1-1.5-1.5-.78-.64-1.14-.67-1.93,0-1.23,1.1-2.32,2.55-4.26,2.44a.62.62,0,0,0-.71.51c-.08.33-.35.4-.65.41-.63,0-1.26-.07-1.56.74-.12.31-.58.21-.88.22-3.44,0-6.89.2-10.31-.09-1.1-.09-2.24-1-3.53-1-.25-1-1.37-.55-1.72-.93-1-1.11-2.65-1.18-3.63-2.5A23.8,23.8,0,0,0,15.24,40c-.58-.51-1.57-1-1.4-2.21C14,37,13,36.6,12.61,36.16A2.66,2.66,0,0,1,12,34.39c-.06-.53.11-1.1-.68-1.32-.52-.14-.39-.74-.39-1.15,0-2.44,0-4.88,0-7.32q0-9.47,0-18.93c0-1.75,0-1.75,1.79-1.75Z"/><path class="cls-1" d="M43.86,22.43c0,3.71,0,7.42,0,11.14,0,.37.2.89-.23,1.09s-.44-.43-.7-.61C41.78,33.24,41,32,40,31.17c-1.33-1-2.38-2.36-3.61-3.47A26,26,0,0,1,33,24.24,5.65,5.65,0,0,0,31.77,23c-.67-.43-.62-.95-.62-1.53,0-4.67,0-9.35,0-14,0-1,.21-1.55,1.32-1.36s2.07-.43,2.84.84c.23.38,1.43.18,2.18.23.58,0,1.23-.13,1.54.61a.55.55,0,0,0,.63.26c1.91-.28,2.8,1.31,4,2.23.31.22.17.67.17,1C43.87,15,43.86,18.71,43.86,22.43Z"/><path class="cls-1" d="M28.55,36.91c-3.72,0-7.44,0-11.15,0-.84,0-1.09-.2-1.36-1.11a6.35,6.35,0,0,0-1.53-3,1.22,1.22,0,0,1-.39-.93c-.1-1.22,0-2.39-.76-3.6-.64-1-.22-2.49-.15-3.77,0-.49.44-.48.81-.48h14c1,0,1.28.95,1.8,1.44,1.6,1.52,3.2,3.07,4.71,4.68,1.13,1.21,2.36,2.34,3.46,3.6a8.45,8.45,0,0,0,2.54,2.28c.2.09.35.18.34.41s-.21.41-.48.42H28.55Z"/><path class="cls-1" d="M32.46,40.12H43.72c.34,0,.81-.17,1,.2.25.53-.54.46-.57.68-.1.83-1.21.81-1.29,1.61a.3.3,0,0,1-.14.18c-1.42-.36-2.15,1.48-3.61,1.09a.92.92,0,0,0-1.3.67c-.09.38-.53.29-.84.29H28.11c-.45,0-.9,0-1-.57,0-.11-.15-.29-.2-.28-1.24.28-1.9-1-3-1.09-.37,0-.74,0-.82-.49,0-.21-.18-.47-.37-.41-1.18.38-1.46-.92-2.28-1.19-.21-.07-.35-.2-.29-.44s.21-.23.37-.24h12Z"/><path class="cls-1" d="M21.5,6.09c1.75,0,3.51,0,5.26,0,.8,0,1.15.21,1.15,1.07,0,3.58,0,7.17,0,10.76,0,.33.12.81-.33.92s-.31-.53-.52-.62c-1.16-.5-1.67-1.69-2.62-2.44s-1.54-1.66-2.35-2.41c-1.23-1.12-2.25-2.45-3.57-3.49a24.46,24.46,0,0,1-2.36-2.41c-.1-.11-.11-.32-.22-.4-.28-.2-.94-.11-.66-.72.21-.44.72-.23,1.09-.23C18.07,6.08,19.78,6.09,21.5,6.09Z"/><path class="cls-1" d="M47.08,25.45V14.67c0-.32,0-.64,0-1s.14-.46.44-.44a.37.37,0,0,1,.37.38,3.31,3.31,0,0,0,1.77,2.6.62.62,0,0,1,.16.42c.06.64-.15,1.36.83,1.58.31.07.18.65.18,1,0,1-.1,2.09.85,2.86.29.24.18.68.18,1,0,1.64,0,3.28,0,4.92,0,.77.33,1.72-.78,2.11a.36.36,0,0,0-.13.32c.3,1.5-.58,2.72-1.17,3.89a10.58,10.58,0,0,1-2,3.35.36.36,0,0,1-.65-.18,3.74,3.74,0,0,1-.06-.95Z"/><path class="cls-1" d="M19.46,20.87c-1.71,0-3.43,0-5.15,0-.79,0-1.17-.21-1.16-1.07,0-3.24,0-6.47,0-9.71,0-.3-.09-.7.28-.84s.4.4.62.55a29.55,29.55,0,0,1,3.65,3.42c1.13,1.09,2.13,2.37,3.27,3.47s2.21,2.05,3.2,3.19c.1.12.38.07.57.14.37.13,1.09-.09,1,.53s-.74.29-1.14.3C22.9,20.89,21.18,20.87,19.46,20.87Z"/><path class="cls-1" d="M48.11,6.09c.92,0,1.83,0,2.75,0,.69,0,1,.18,1,.93,0,2,0,4,0,6,0,.3.09.72-.31.81s-.4-.37-.47-.64a5.88,5.88,0,0,0-2.42-3.1c-.51-.37-.77-.91-1.21-1.29a3.72,3.72,0,0,0-1.94-1c-.5-.09-.86-.78-1.26-1.2s.26-.51.63-.51Z"/></g></g></svg>